<?xml version="1.0" encoding="UTF-8" standalone="no"?>
<svg width="175px" height="36px" viewBox="0 0 175 36" version="1.1" xmlns="http://www.w3.org/2000/svg" xmlns:xlink="http://www.w3.org/1999/xlink">
    <!-- Generator: Sketch 42 (36781) - http://www.bohemiancoding.com/sketch -->
    <title>Logo</title>
    <desc>Created with Sketch.</desc>
    <defs></defs>
    <g id="Page-1" stroke="none" stroke-width="1" fill="none" fill-rule="evenodd">
        <g id="Logo">
            <path d="M173.5102,24.3701 L168.8902,24.3701 L168.8902,18.3101 L172.4902,18.3101 C173.2702,18.3101 173.6902,17.8901 173.6902,17.1101 L173.6902,16.4501 C173.6902,15.6701 173.2702,15.2501 172.4902,15.2501 L168.8902,15.2501 L168.8902,9.4911 L173.4202,9.4911 C174.2002,9.4911 174.6202,9.0711 174.6202,8.2911 L174.6202,7.6311 C174.6202,6.8511 174.2002,6.4311 173.4202,6.4311 L166.6102,6.4311 C165.8302,6.4311 165.4102,6.8511 165.4102,7.6311 L165.4102,26.2301 C165.4102,27.0101 165.8302,27.4301 166.6102,27.4301 L173.5102,27.4301 C174.2902,27.4301 174.7102,27.0101 174.7102,26.2301 L174.7102,25.5701 C174.7102,24.7901 174.2902,24.3701 173.5102,24.3701 L173.5102,24.3701 Z M161.2102,6.4311 L160.0102,6.4311 C159.3202,6.4311 158.8702,6.7611 158.6602,7.4211 L154.9112,18.6401 L151.1912,7.4211 C150.9812,6.7311 150.5312,6.4311 149.8412,6.4311 L148.7612,6.4311 C147.9812,6.4311 147.5612,6.8511 147.5612,7.6311 L147.5612,26.2301 C147.5612,27.0101 147.9812,27.4301 148.7612,27.4301 L149.6012,27.4301 C150.3812,27.4301 150.8012,27.0101 150.8012,26.2301 L150.8012,14.5901 L153.6202,23.3801 C153.8302,24.0701 154.2812,24.3701 154.9402,24.3701 C155.6012,24.3701 156.0202,24.0701 156.2302,23.3801 L159.0502,14.5901 L159.0502,26.2301 C159.0502,27.0101 159.4702,27.4301 160.2502,27.4301 L161.2102,27.4301 C161.9902,27.4301 162.4102,27.0101 162.4102,26.2301 L162.4102,7.6311 C162.4102,6.8511 161.9902,6.4311 161.2102,6.4311 L161.2102,6.4311 Z M143.2412,6.4311 L142.1612,6.4311 C141.3812,6.4311 140.9612,6.8511 140.9612,7.6311 L140.9612,26.2301 C140.9612,27.0101 141.3812,27.4301 142.1612,27.4301 L143.2412,27.4301 C144.0212,27.4301 144.4412,27.0101 144.4412,26.2301 L144.4412,7.6311 C144.4412,6.8511 144.0212,6.4311 143.2412,6.4311 L143.2412,6.4311 Z M137.9612,6.4311 L129.8612,6.4311 C129.0812,6.4311 128.6612,6.8511 128.6612,7.6311 L128.6612,8.2911 C128.6612,9.0711 129.0812,9.4911 129.8612,9.4911 L132.1712,9.4911 L132.1712,26.2301 C132.1712,27.0101 132.5912,27.4301 133.3712,27.4301 L134.4512,27.4301 C135.2312,27.4301 135.6512,27.0101 135.6512,26.2301 L135.6512,9.4911 L137.9612,9.4911 C138.7402,9.4911 139.1612,9.0711 139.1612,8.2911 L139.1612,7.6311 C139.1612,6.8511 138.7402,6.4311 137.9612,6.4311 L137.9612,6.4311 Z M123.8612,14.1411 C123.8612,15.6401 123.0812,16.0601 121.9412,16.0601 L120.1112,16.0601 L120.1112,9.4911 L121.9412,9.4911 C123.0812,9.4911 123.8612,9.9111 123.8612,11.4111 L123.8612,14.1411 Z M125.0612,18.5201 C126.5012,17.8901 127.3412,16.6301 127.3412,14.6201 L127.3412,10.8711 C127.3412,7.6911 125.2412,6.4311 122.0612,6.4311 L117.8312,6.4311 C117.0512,6.4311 116.6312,6.8511 116.6312,7.6311 L116.6312,26.2301 C116.6312,27.0101 117.0512,27.4301 117.8312,27.4301 L118.9112,27.4301 C119.6912,27.4301 120.1112,27.0101 120.1112,26.2301 L120.1112,19.0601 L121.8812,19.0601 L124.2212,26.4401 C124.4312,27.1301 124.8812,27.4301 125.5712,27.4301 L126.6212,27.4301 C127.4912,27.4301 127.8812,26.8601 127.6112,26.0501 L125.0612,18.5201 Z M113.2112,24.3701 L108.5912,24.3701 L108.5912,18.3101 L112.1912,18.3101 C112.9712,18.3101 113.3912,17.8901 113.3912,17.1101 L113.3912,16.4501 C113.3912,15.6701 112.9712,15.2501 112.1912,15.2501 L108.5912,15.2501 L108.5912,9.4911 L113.1212,9.4911 C113.9012,9.4911 114.3212,9.0711 114.3212,8.2911 L114.3212,7.6311 C114.3212,6.8511 113.9012,6.4311 113.1212,6.4311 L106.3112,6.4311 C105.5312,6.4311 105.1112,6.8511 105.1112,7.6311 L105.1112,26.2301 C105.1112,27.0101 105.5312,27.4301 106.3112,27.4301 L113.2112,27.4301 C113.9912,27.4301 114.4112,27.0101 114.4112,26.2301 L114.4112,25.5701 C114.4112,24.7901 113.9912,24.3701 113.2112,24.3701 L113.2112,24.3701 Z M100.9112,6.4311 L100.1312,6.4311 C99.3512,6.4311 98.9312,6.8511 98.9312,7.6311 L98.9312,19.4201 L94.8512,7.4211 C94.6412,6.7611 94.1922,6.4311 93.5022,6.4311 L92.2422,6.4311 C91.4622,6.4311 91.0422,6.8511 91.0422,7.6311 L91.0422,26.2301 C91.0422,27.0101 91.4622,27.4301 92.2422,27.4301 L93.0212,27.4301 C93.8022,27.4301 94.2212,27.0101 94.2212,26.2301 L94.2212,13.7801 L98.4812,26.4401 C98.6912,27.1001 99.1412,27.4301 99.8312,27.4301 L100.9112,27.4301 C101.6912,27.4301 102.1112,27.0101 102.1112,26.2301 L102.1112,7.6311 C102.1112,6.8511 101.6912,6.4311 100.9112,6.4311 L100.9112,6.4311 Z M86.8412,6.4311 L86.0612,6.4311 C85.2812,6.4311 84.8622,6.8511 84.8622,7.6311 L84.8622,19.4201 L80.7822,7.4211 C80.5722,6.7611 80.1222,6.4311 79.4322,6.4311 L78.1722,6.4311 C77.3922,6.4311 76.9722,6.8511 76.9722,7.6311 L76.9722,26.2301 C76.9722,27.0101 77.3922,27.4301 78.1722,27.4301 L78.9522,27.4301 C79.7322,27.4301 80.1522,27.0101 80.1522,26.2301 L80.1522,13.7801 L84.4112,26.4401 C84.6222,27.1001 85.0712,27.4301 85.7612,27.4301 L86.8412,27.4301 C87.6212,27.4301 88.0412,27.0101 88.0412,26.2301 L88.0412,7.6311 C88.0412,6.8511 87.6212,6.4311 86.8412,6.4311 L86.8412,6.4311 Z M67.5522,19.8701 L69.0222,10.5411 L70.4922,19.8701 L67.5522,19.8701 Z M71.4822,7.5111 C71.3622,6.7911 70.8822,6.4311 70.1622,6.4311 L68.0022,6.4311 C67.2822,6.4311 66.8022,6.7911 66.6822,7.5111 L63.2322,26.1401 C63.0822,26.9801 63.5022,27.4301 64.3122,27.4301 L65.2422,27.4301 C65.9622,27.4301 66.4122,27.0701 66.5322,26.3201 L67.1022,22.7501 L70.9422,22.7501 L71.5122,26.3201 C71.6322,27.0701 72.0822,27.4301 72.8022,27.4301 L73.9112,27.4301 C74.7212,27.4301 75.1412,26.9801 74.9922,26.1401 L71.4822,7.5111 Z M58.3722,22.8101 C58.3722,23.9201 57.7422,24.4301 56.7522,24.4301 L54.6822,24.4301 L54.6822,18.0401 L56.7522,18.0401 C57.7422,18.0401 58.3722,18.5501 58.3722,19.6601 L58.3722,22.8101 Z M54.6822,9.4311 L56.6322,9.4311 C57.6222,9.4311 58.2522,9.9411 58.2522,11.0511 L58.2522,13.4801 C58.2522,14.5901 57.6222,15.1001 56.6322,15.1001 L54.6822,15.1001 L54.6822,9.4311 Z M59.3922,16.5101 C61.0722,16.3001 61.7322,14.7101 61.7322,13.2111 L61.7322,10.5711 C61.7322,7.9311 59.8722,6.4311 56.6922,6.4311 L52.4022,6.4311 C51.6222,6.4311 51.2022,6.8511 51.2022,7.6311 L51.2022,26.2301 C51.2022,27.0101 51.6222,27.4301 52.4022,27.4301 L56.6322,27.4301 C59.8122,27.4301 61.8522,25.9301 61.8522,23.2901 L61.8522,19.8401 C61.8522,18.2201 61.2222,16.8101 59.3922,16.5101 L59.3922,16.5101 Z" id="Type" fill="#000000"></path>
            <g id="Icon">
                <path d="M18.8322,12.9102 L24.8102,10.3942 L18.8322,7.7782 L12.8542,10.3942 L18.8322,12.9102 Z M18.8322,35.6682 C18.3122,35.6682 17.8072,35.5632 17.3292,35.3532 L2.2262,28.7392 C0.8592,28.1342 -0.0118,26.7872 0.0002,25.3062 L0.0002,10.3342 C-0.0118,8.8682 0.8592,7.5272 2.2192,6.9282 L17.3342,0.3092 C17.7462,0.1352 18.1552,0.0372 18.5702,0.0092 C18.5702,0.0092 18.7902,0.0002 18.7932,0.0002 C19.3532,0.0002 19.8452,0.1012 20.3112,0.3012 L35.4382,6.9252 C36.8042,7.5262 37.6762,8.8732 37.6642,10.3572 L37.6642,25.3292 C37.6762,26.7912 36.8072,28.1322 35.4512,28.7342 L20.3302,35.3542 C19.8612,35.5622 19.3552,35.6682 18.8322,35.6682 L18.8322,35.6682 Z" id="Fill-1" fill="#FFFFFF"></path>
                <path d="M34.4662,9.6881 C34.7902,9.8301 34.9972,10.1501 34.9942,10.5011 L34.9942,25.4961 C34.9972,25.8471 34.7902,26.1661 34.4662,26.3091 L19.3582,32.9241 C19.1282,33.0261 18.8662,33.0261 18.6362,32.9241 L3.5282,26.3091 C3.2042,26.1661 2.9972,25.8471 3.0002,25.4961 L3.0002,10.5011 C2.9972,10.1501 3.2042,9.8301 3.5282,9.6881 L18.6362,3.0721 C18.7292,3.0331 18.8272,3.0101 18.9282,3.0031 C19.0752,2.9901 19.2232,3.0141 19.3582,3.0721 L34.4662,9.6881 Z M18.1082,30.7601 L18.1082,27.3981 L4.7772,21.7881 L4.7772,24.9171 L18.1082,30.7601 Z M18.1082,25.4821 L18.1082,22.5461 L4.7772,16.9371 L4.7772,19.8731 L18.1082,25.4821 Z M18.1082,20.6311 L18.1082,17.6951 L4.7772,12.0861 L4.7772,15.0211 L18.1082,20.6311 Z M18.9972,16.1511 L32.1612,10.6111 L18.9972,4.8501 L5.8332,10.6111 L18.9972,16.1511 Z M33.2172,24.9171 L33.2172,21.7881 L19.8862,27.3981 L19.8862,30.7601 L33.2172,24.9171 Z M33.2172,19.8731 L33.2172,16.9371 L19.8862,22.5461 L19.8862,25.4821 L33.2172,19.8731 Z M33.2172,15.0211 L33.2172,12.0861 L19.8862,17.6951 L19.8862,20.6311 L33.2172,15.0211 Z" id="Combined-Shape" fill="#000000"></path>
            </g>
        </g>
    </g>
</svg>